<svg width="192" height="50" viewBox="0 0 192 50" fill="none" xmlns="http://www.w3.org/2000/svg">
<path d="M57.5 29.7532V46.3802C57.5 47.761 56.3808 48.8802 55 48.8802H45.8158L45.426 49.2692C44.4496 50.2436 42.8665 50.2436 41.8901 49.2692L41.5004 48.8802H40.8335H2.5C1.11925 48.8802 0 47.761 0 46.3802V32.2532C0 30.8726 1.11913 29.7533 2.49975 29.7532H57.5Z" fill="white"/>
<path d="M57.5 29.7532V46.3802C57.5 47.761 56.3808 48.8802 55 48.8802H45.8158L45.426 49.2692C44.4496 50.2436 42.8665 50.2436 41.8901 49.2692L41.5004 48.8802L38.3625 48.8802L29.8149 40.3326V35.0429L29.8334 35.0619V29.7531L57.5 29.7532Z" fill="#979B99"/>
<path d="M55.4429 39.2731L45.426 49.2692C44.4496 50.2436 42.8665 50.2436 41.8901 49.2692L10.7908 18.2343C9.81441 17.26 9.81441 15.6801 10.7908 14.7057L20.8078 4.70945C21.7842 3.73508 23.3673 3.73508 24.3437 4.70945L55.4429 35.7443C56.4193 36.7188 56.4193 38.2986 55.4429 39.2731Z" fill="white"/>
<path d="M55.4429 39.2731L45.426 49.2692C44.4496 50.2436 42.8665 50.2436 41.8901 49.2692L36.25 43.641V23.9838H43.658L55.4429 35.7443C56.4193 36.7188 56.4193 38.2986 55.4429 39.2731Z" fill="#AAAFAD"/>
<path d="M38.3334 46.3803V30.0001C38.3334 28.6193 39.4526 27.5001 40.8334 27.5001H55C56.3808 27.5001 57.5 28.6193 57.5 30.0001V46.3802C57.5 47.761 56.3808 48.8802 55 48.8802H40.8335C39.4528 48.8802 38.3334 47.761 38.3334 46.3803Z" fill="white"/>
<path d="M45.787 43.5671C45.787 44.7409 44.8355 45.6924 43.6618 45.6924H43.653C42.4793 45.6924 41.5278 44.7409 41.5278 43.5671C41.5278 42.3934 42.4793 41.4419 43.653 41.4419H43.6618C44.8355 41.4419 45.787 42.3934 45.787 43.5671Z" fill="#AAAFAD"/>
<path d="M44.7223 43.5671C44.7223 44.154 44.2455 44.6297 43.6574 44.6297C43.0693 44.6297 42.5925 44.154 42.5925 43.5671C42.5925 42.9802 43.0693 42.5045 43.6574 42.5045C44.2455 42.5045 44.7223 42.9802 44.7223 43.5671Z" fill="#66646D"/>
<path d="M41.5278 33.4724C41.5278 33.179 41.7656 32.9411 42.059 32.9411H53.7742C54.0675 32.9411 54.3054 33.179 54.3054 33.4724C54.3054 33.7658 54.0675 34.0036 53.7742 34.0036H42.059C41.7656 34.0036 41.5278 33.7658 41.5278 33.4724Z" fill="#AAAFAD"/>
<path d="M41.5277 35.5976C41.5277 35.3042 41.7656 35.0663 42.059 35.0663H53.7741C54.0675 35.0663 54.3054 35.3042 54.3054 35.5976C54.3054 35.8909 54.0675 36.1288 53.7741 36.1288H42.059C41.7656 36.1289 41.5277 35.8911 41.5277 35.5976Z" fill="#AAAFAD"/>
<path d="M0 46.3802V32.2532C0 30.8726 1.11913 29.7533 2.49975 29.7532L29.8149 29.7532V48.8802L2.5 48.8802C1.11925 48.8802 0 47.761 0 46.3802Z" fill="#475E70"/>
<path d="M29.8149 29.7532L29.8149 40.3326L22.3149 32.8787V29.753L29.8149 29.7532Z" fill="#344A59"/>
<path d="M0 46.3802V32.2532C0 30.8726 1.11913 29.7533 2.49975 29.7532L22.3611 29.7532V48.8802L2.5 48.8802C1.11925 48.8802 0 47.761 0 46.3802Z" fill="#65849B"/>
<path d="M19.1666 35.5965V33.4734C19.1666 33.1794 19.405 32.9411 19.699 32.9411C19.993 32.9411 20.2314 33.1794 20.2314 33.4734V35.5965C20.2314 35.8905 19.993 36.1288 19.699 36.1288C19.405 36.1288 19.1666 35.8905 19.1666 35.5965Z" fill="#344A59"/>
<path d="M0 46.3802V32.2532C0 30.8726 1.11913 29.7533 2.49975 29.7532L14.9074 29.7532V48.8802L2.5 48.8802C1.11925 48.8802 0 47.761 0 46.3802Z" fill="#7FA3BA"/>
<path d="M11.713 35.5965V33.4734C11.713 33.1794 11.9514 32.9411 12.2454 32.9411C12.5394 32.9411 12.7778 33.1794 12.7778 33.4734V35.5965C12.7778 35.8905 12.5394 36.1288 12.2454 36.1288C11.9514 36.1288 11.713 35.8905 11.713 35.5965Z" fill="#65849B"/>
<path d="M2.5 48.8802C1.11925 48.8802 0 47.761 0 46.3802V32.2532C0 30.8726 1.11913 29.7533 2.49975 29.7532L7.45375 29.7532V48.8802L2.5 48.8802Z" fill="#95BDBF"/>
<path d="M4.25923 35.5965V33.4734C4.25923 33.1794 4.49761 32.9411 4.79161 32.9411C5.08561 32.9411 5.32398 33.1794 5.32398 33.4734V35.5965C5.32398 35.8905 5.08561 36.1288 4.79161 36.1288C4.49761 36.1288 4.25923 35.8905 4.25923 35.5965Z" fill="#7FA3BA"/>
<path d="M43.658 23.9838L30.1052 37.5087L10.7908 18.2343C9.81441 17.26 9.81441 15.6801 10.7908 14.7057L20.8078 4.70945C21.7842 3.73508 23.3673 3.73508 24.3437 4.70945L43.658 23.9838Z" fill="#707F39"/>
<path d="M38.3875 18.7242L24.8346 32.2491L19.564 26.9895L10.7908 18.2343C9.81441 17.26 9.81441 15.6801 10.7908 14.7057L20.8078 4.70945C21.7842 3.73508 23.3673 3.73508 24.3437 4.70945L33.1168 13.4646L38.3875 18.7242Z" fill="#84994B"/>
<path d="M19.564 26.9895L10.7908 18.2343C9.81441 17.26 9.81441 15.6801 10.7908 14.7057L20.8078 4.70945C21.7842 3.73508 23.3673 3.73508 24.3437 4.70945L33.1168 13.4646L19.564 26.9895Z" fill="#AAC06A"/>
<path d="M10.7908 18.2343C9.81441 17.26 9.81441 15.6801 10.7908 14.7057L20.8078 4.70945C21.7842 3.73508 23.3673 3.73508 24.3437 4.70945L27.8463 8.20477L14.2934 21.7297L10.7908 18.2343Z" fill="#C8DD7F"/>
<path d="M31.9877 20.6024L33.4936 19.0997C33.7016 18.8922 34.0382 18.8922 34.2462 19.0997C34.4541 19.3072 34.4541 19.6439 34.2462 19.8514L32.7403 21.3542C32.5323 21.5617 32.1957 21.5617 31.9877 21.3542C31.7798 21.1467 31.7798 20.8099 31.9877 20.6024Z" fill="#707F39"/>
<path d="M26.7171 15.3428L28.2229 13.8401C28.4309 13.6326 28.7676 13.6326 28.9756 13.8401C29.1834 14.0476 29.1834 14.3843 28.9756 14.5918L27.4697 16.0946C27.2617 16.3021 26.9251 16.3021 26.7171 16.0946C26.5092 15.8871 26.5092 15.5502 26.7171 15.3428Z" fill="#84994B"/>
<path d="M21.4465 10.0832L22.9524 8.58044C23.1604 8.37294 23.497 8.37294 23.705 8.58044C23.9129 8.78794 23.9129 9.12469 23.705 9.33219L22.1992 10.8349C21.9912 11.0424 21.6545 11.0424 21.4465 10.8349C21.2385 10.6274 21.2385 10.2906 21.4465 10.0832Z" fill="#AAC06A"/>
<path d="M38.3875 18.7242L43.658 23.9838L36.2501 31.3766V20.8572L38.3875 18.7242Z" fill="#515B28"/>
<path d="M40.8334 3.75H55C56.3807 3.75 57.5 4.86925 57.5 6.25L57.5 29.7532L38.3334 29.7531V6.25C38.3334 4.86925 39.4526 3.75 40.8334 3.75Z" fill="#AA3131"/>
<path d="M40.8334 2.5H55C56.3807 2.5 57.5 3.61925 57.5 5V22.3149H38.3334V5C38.3334 3.61925 39.4526 2.5 40.8334 2.5Z" fill="#C93F3F"/>
<path d="M40.8334 2.5H55C56.3807 2.5 57.5 3.61925 57.5 5V14.8766H38.3334V5C38.3334 3.61925 39.4526 2.5 40.8334 2.5Z" fill="#E25C56"/>
<path d="M38.3333 2.5C38.3333 1.11925 39.4526 0 40.8333 0H55C56.3807 0 57.5 1.11925 57.5 2.5V7.43825H38.3333V2.5Z" fill="#FF9292"/>
<path d="M51.6424 26.5654H53.7742C54.0676 26.5654 54.3055 26.8032 54.3055 27.0966C54.3055 27.39 54.0676 27.6279 53.7742 27.6279H51.6424C51.349 27.6279 51.1111 27.39 51.1111 27.0966C51.1111 26.8032 51.349 26.5654 51.6424 26.5654Z" fill="#6C3131"/>
<path d="M51.6424 19.127H53.7742C54.0676 19.127 54.3055 19.3649 54.3055 19.6583C54.3055 19.9516 54.0676 20.1895 53.7742 20.1895H51.6424C51.349 20.1895 51.1111 19.9516 51.1111 19.6583C51.1111 19.3649 51.349 19.127 51.6424 19.127Z" fill="#AA3131"/>
<path d="M51.6424 11.6887H53.7742C54.0676 11.6887 54.3055 11.9266 54.3055 12.22C54.3055 12.5134 54.0676 12.7512 53.7742 12.7512H51.6424C51.349 12.7512 51.1111 12.5134 51.1111 12.22C51.1111 11.9266 51.349 11.6887 51.6424 11.6887Z" fill="#C93F3F"/>
<path d="M51.6424 4.25049H53.7742C54.0676 4.25049 54.3055 4.48837 54.3055 4.78174C54.3055 5.07512 54.0676 5.31299 53.7742 5.31299H51.6424C51.349 5.31299 51.1111 5.07512 51.1111 4.78174C51.1111 4.48837 51.349 4.25049 51.6424 4.25049Z" fill="#E25C56"/>
<path d="M72.6717 46.7398C70.0067 46.7229 67.8308 45.8711 66.144 44.1843C64.4742 42.4976 63.6392 40.2795 63.6392 37.5301C63.6392 34.7639 64.4742 32.5373 66.144 30.8506C67.8308 29.1639 70.0573 28.3205 72.8236 28.3205C75.0838 28.3205 77.0826 28.894 78.8199 30.041L79.326 33.6084H79.0983C78.7272 32.1578 77.9766 31.0446 76.8464 30.2687C75.7163 29.4759 74.3754 29.0795 72.8236 29.0795C70.6139 29.0795 68.8428 29.847 67.5103 31.3819C66.1946 32.9169 65.5368 34.9494 65.5368 37.4795C65.5368 40.0096 66.1862 42.0506 67.485 43.6024C68.8007 45.1373 70.5296 45.9301 72.6717 45.9807C74.5609 45.9807 76.138 45.4663 77.4031 44.4373C78.7693 43.3241 79.5958 41.5108 79.8826 38.9976H80.085L79.7814 42.9699C78.2464 45.4831 75.8766 46.7398 72.6717 46.7398Z" fill="black"/>
<path d="M85.0634 30.8759C86.8682 29.1723 89.2044 28.3205 92.0718 28.3205C94.9562 28.3205 97.3008 29.1723 99.1056 30.8759C100.91 32.5626 101.813 34.7807 101.813 37.5301C101.813 40.2795 100.91 42.506 99.1056 44.2096C97.3008 45.8964 94.9562 46.7398 92.0718 46.7398C89.2044 46.7398 86.8682 45.8964 85.0634 44.2096C83.2586 42.506 82.3562 40.2795 82.3562 37.5301C82.3562 34.7807 83.2586 32.5626 85.0634 30.8759ZM86.4297 43.653C87.8634 45.2048 89.7441 45.9807 92.0718 45.9807C94.3995 45.9807 96.2718 45.2048 97.6887 43.653C99.1224 42.1012 99.8393 40.0602 99.8393 37.5301C99.8393 35 99.1224 32.959 97.6887 31.4072C96.2718 29.8554 94.3995 29.0795 92.0718 29.0795C89.7441 29.0795 87.8634 29.8554 86.4297 31.4072C85.0128 32.959 84.3044 35 84.3044 37.5301C84.3044 40.0602 85.0128 42.1012 86.4297 43.653Z" fill="black"/>
<path d="M125.191 46.1325H125.596V46.3855H120.106V46.1578H120.485C120.772 46.1578 121.017 46.0482 121.219 45.8289C121.421 45.6096 121.506 45.3566 121.472 45.0699L120.333 32.3434L115.02 44.159C114.548 45.188 114.261 46.0482 114.16 46.7398H113.907L107.43 32.6976L106.342 45.0699C106.308 45.3398 106.393 45.5928 106.595 45.8289C106.797 46.0482 107.042 46.1578 107.329 46.1578H107.708V46.3855H102.8V46.1325H103.205C103.677 46.1325 104.082 45.9892 104.419 45.7024C104.773 45.4157 104.984 45.0277 105.052 44.5386L106.949 28.3205H107.202L114.261 43.5771L121.168 28.3205H121.396L123.344 44.5386C123.412 45.0277 123.623 45.4157 123.977 45.7024C124.331 45.9892 124.736 46.1325 125.191 46.1325Z" fill="black"/>
<path d="M137.909 31.0783H137.656V30.6988C137.656 30.3614 137.538 30.0747 137.302 29.8386C137.066 29.5855 136.771 29.459 136.417 29.459H131.078V37.2771H135.354C135.691 37.2602 135.978 37.1337 136.214 36.8976C136.45 36.6614 136.568 36.3747 136.568 36.0373V35.6578H136.821V39.6554H136.568V39.2759C136.568 38.9386 136.45 38.6518 136.214 38.4157C135.995 38.1795 135.717 38.053 135.379 38.0361H131.078V44.5386C131.078 44.9771 131.238 45.3566 131.559 45.6771C131.879 45.9807 132.259 46.1325 132.697 46.1325H133.026V46.3855H127.485V46.1325H127.814C128.253 46.1325 128.624 45.9807 128.927 45.6771C129.248 45.3566 129.417 44.9771 129.433 44.5386V30.3699C129.433 29.9651 129.265 29.6277 128.927 29.3578C128.607 29.0711 128.236 28.9277 127.814 28.9277H127.511L127.485 28.6747H134.898C135.421 28.6747 135.986 28.6241 136.594 28.5229C137.218 28.4217 137.656 28.3205 137.909 28.2193V31.0783Z" fill="black"/>
<path d="M142.881 30.8759C144.685 29.1723 147.022 28.3205 149.889 28.3205C152.773 28.3205 155.118 29.1723 156.923 30.8759C158.728 32.5626 159.63 34.7807 159.63 37.5301C159.63 40.2795 158.728 42.506 156.923 44.2096C155.118 45.8964 152.773 46.7398 149.889 46.7398C147.022 46.7398 144.685 45.8964 142.881 44.2096C141.076 42.506 140.173 40.2795 140.173 37.5301C140.173 34.7807 141.076 32.5626 142.881 30.8759ZM144.247 43.653C145.681 45.2048 147.561 45.9807 149.889 45.9807C152.217 45.9807 154.089 45.2048 155.506 43.653C156.94 42.1012 157.657 40.0602 157.657 37.5301C157.657 35 156.94 32.959 155.506 31.4072C154.089 29.8554 152.217 29.0795 149.889 29.0795C147.561 29.0795 145.681 29.8554 144.247 31.4072C142.83 32.959 142.122 35 142.122 37.5301C142.122 40.0602 142.83 42.1012 144.247 43.653Z" fill="black"/>
<path d="M166.844 29.459H165.225V44.5386C165.225 44.9771 165.377 45.3566 165.68 45.6771C166.001 45.9807 166.389 46.1325 166.844 46.1325H167.148L167.173 46.3855H161.632V46.1325H161.961C162.399 46.1325 162.771 45.9807 163.074 45.6771C163.395 45.3735 163.563 45.0024 163.58 44.5639V30.5217C163.563 30.0831 163.395 29.712 163.074 29.4084C162.771 29.088 162.399 28.9277 161.961 28.9277H161.632V28.6747H168.463C169.998 28.6747 171.204 29.1048 172.081 29.9651C172.958 30.8084 173.397 31.9133 173.397 33.2795C173.397 34.6289 172.975 35.8012 172.132 36.7964C171.305 37.7747 170.293 38.2639 169.096 38.2639C169.349 38.3819 169.644 38.6181 169.981 38.9723C170.336 39.3096 170.648 39.6639 170.918 40.0349C172.368 42.1096 173.313 43.3916 173.751 43.8807C174.19 44.353 174.502 44.6819 174.687 44.8675C174.873 45.0361 175.075 45.2048 175.295 45.3735C175.514 45.5422 175.733 45.6771 175.952 45.7783C176.442 46.0145 176.964 46.1325 177.521 46.1325V46.3855H176.13C175.404 46.3855 174.73 46.259 174.105 46.006C173.481 45.7361 173.009 45.4663 172.689 45.1964C172.385 44.9096 172.115 44.6398 171.879 44.3867C171.66 44.1169 171.036 43.2398 170.007 41.7554C168.978 40.2711 168.379 39.4277 168.21 39.2253C168.042 39.006 167.865 38.7952 167.679 38.5928C167.139 38.0193 166.599 37.7325 166.06 37.7325V37.4795C166.195 37.4964 166.372 37.5048 166.591 37.5048C166.81 37.5048 167.08 37.4964 167.401 37.4795C169.492 37.4289 170.808 36.5518 171.348 34.8482C171.449 34.5108 171.499 34.1988 171.499 33.912C171.499 33.6084 171.499 33.4145 171.499 33.3301C171.466 32.2 171.171 31.2892 170.614 30.5976C170.057 29.906 169.307 29.5349 168.362 29.4843C167.957 29.4675 167.451 29.459 166.844 29.459Z" fill="black"/>
<path d="M190.755 30.9265C190.755 30.5217 190.612 30.1759 190.325 29.8892C190.039 29.5855 189.701 29.4253 189.313 29.4084H184.506V44.5639C184.523 45.0024 184.683 45.3735 184.987 45.6771C185.307 45.9807 185.687 46.1325 186.125 46.1325H186.454V46.3855H180.913V46.1325H181.242C181.681 46.1325 182.052 45.9807 182.355 45.6771C182.676 45.3735 182.845 45.0108 182.861 44.5892V29.4084H178.054C177.649 29.4253 177.304 29.5855 177.017 29.8892C176.747 30.1759 176.612 30.5217 176.612 30.9265V31.3566L176.359 31.3819V28.194C176.612 28.2952 177.051 28.3964 177.675 28.4976C178.299 28.5988 178.872 28.6494 179.395 28.6494H187.947C188.773 28.6494 189.457 28.5904 189.996 28.4723C190.553 28.3373 190.89 28.2446 191.008 28.194V31.3819L190.755 31.3566V30.9265Z" fill="black"/>
<path d="M90.5638 23.7831C90.6602 23.7831 90.7566 23.7831 90.853 23.7831V24.0241C90.4032 24.0884 89.8972 24.1205 89.3349 24.1205C88.7887 24.1205 88.106 24 87.2867 23.759C86.4835 23.5181 85.7526 23.0683 85.0939 22.4096C83.7445 21.0602 82.9253 19.3092 82.6361 17.1566L81.1662 6.43373L76.1542 17.759C75.7044 18.739 75.4313 19.5582 75.3349 20.2169H75.0939L68.853 6.6506L67.7927 18.6265C67.7606 18.8996 67.8409 19.1406 68.0337 19.3494C68.2425 19.5582 68.4674 19.6626 68.7084 19.6626H69.0939V19.8795H64.4192V19.6386H64.8048C65.2385 19.6386 65.616 19.51 65.9373 19.253C66.2747 18.9799 66.4835 18.6265 66.5638 18.1928L68.0819 5.03614C66.6682 2.25703 64.9735 0.867469 62.9976 0.867469C62.8208 0.867469 62.6361 0.875501 62.4433 0.891565V0.650601C62.8771 0.538151 63.2305 0.481926 63.5036 0.481926C63.7767 0.481926 64.0739 0.497991 64.3951 0.53012C64.7164 0.546184 65.0939 0.618473 65.5277 0.746987C65.9614 0.875502 66.371 1.06827 66.7566 1.3253C67.1421 1.56626 67.4795 1.82329 67.7686 2.09638C68.0578 2.35341 68.3309 2.64257 68.5879 2.96385C69.0216 3.54217 69.367 4.09639 69.6241 4.62651L75.4313 17.2048L81.9132 2.6747H82.1301L84.371 16.9398C84.7084 19.1888 85.4313 20.8916 86.5397 22.0482C87.6642 23.2048 89.0056 23.7831 90.5638 23.7831Z" fill="black"/>
<path d="M103.736 19.6386H103.929V19.8795H98.5075V19.6386H98.7244C99.0617 19.6386 99.3107 19.5341 99.4714 19.3253C99.6481 19.1004 99.7364 18.8916 99.7364 18.6988C99.7364 18.506 99.7043 18.3133 99.6401 18.1205L98.0979 14.0241H91.5919L89.9774 18.1446C89.9132 18.3373 89.881 18.5301 89.881 18.7229C89.881 18.8996 89.9613 19.1004 90.122 19.3253C90.2987 19.5341 90.5557 19.6386 90.8931 19.6386H91.1099V19.8795H86.2666V19.6386H86.4834C86.885 19.6386 87.2786 19.51 87.6642 19.253C88.0497 18.996 88.363 18.6185 88.6039 18.1205L94.0497 5.15663C94.6441 3.85542 94.9413 3.02811 94.9413 2.6747H95.1581L101.616 18.1205C101.841 18.6185 102.146 18.996 102.532 19.253C102.917 19.51 103.319 19.6386 103.736 19.6386ZM91.881 13.3012H97.8087L94.9172 5.56626L91.881 13.3012Z" fill="black"/>
<path d="M113.252 3.01205C115.823 3.01205 117.903 3.79116 119.493 5.3494C121.1 6.89157 121.903 8.92369 121.903 11.4458C121.903 13.9679 121.1 16.008 119.493 17.5663C117.903 19.1084 115.823 19.8795 113.252 19.8795H105.084V19.6386H105.397C105.815 19.6386 106.168 19.494 106.457 19.2048C106.762 18.8996 106.923 18.5382 106.939 18.1205V4.62651C106.939 4.24096 106.779 3.91968 106.457 3.66265C106.152 3.38956 105.799 3.25301 105.397 3.25301H105.108L105.084 3.01205H113.252ZM108.505 3.73494V19.1566H113.252C114.602 19.1566 115.791 18.8353 116.819 18.1928C117.863 17.5502 118.666 16.6506 119.228 15.494C119.807 14.3213 120.096 12.9719 120.096 11.4458C120.096 9.13253 119.461 7.26908 118.192 5.85542C116.939 4.44177 115.293 3.73494 113.252 3.73494H108.505Z" fill="black"/>
<path d="M124.364 19.6386C124.781 19.6386 125.135 19.494 125.424 19.2048C125.729 18.8996 125.89 18.5382 125.906 18.1205V4.62651C125.906 4.24096 125.753 3.91968 125.448 3.66265C125.143 3.38956 124.781 3.25301 124.364 3.25301H124.074L124.05 3.01205H131.11C131.608 3.01205 132.147 2.96385 132.725 2.86747C133.319 2.77108 133.737 2.6747 133.978 2.57831V5.61446H133.737V5.18072C133.737 4.79518 133.6 4.46586 133.327 4.19277C133.07 3.91968 132.757 3.7751 132.388 3.75904H127.472V11.2048H131.544C131.866 11.1888 132.139 11.0683 132.364 10.8434C132.588 10.6185 132.701 10.3373 132.701 10V9.66265H132.942V13.4699H132.701V13.1084C132.701 12.7871 132.588 12.5141 132.364 12.2892C132.155 12.0643 131.89 11.9438 131.568 11.9277H127.472V19.1325H130.918C132.106 19.1325 133.014 18.8675 133.641 18.3373C134.267 17.8072 134.789 17.0201 135.207 15.9759H135.448L134.05 19.8795H124.05V19.6386H124.364Z" fill="black"/>
<path d="M153.909 5.3012H153.668V4.93976C153.668 4.61847 153.556 4.34538 153.331 4.12048C153.106 3.87952 152.825 3.75904 152.488 3.75904H147.403V11.2048H151.476C151.797 11.1888 152.07 11.0683 152.295 10.8434C152.52 10.6185 152.632 10.3454 152.632 10.0241V9.66265H152.873V13.4699H152.632V13.1084C152.632 12.7871 152.52 12.5141 152.295 12.2892C152.086 12.0643 151.821 11.9438 151.5 11.9277H147.403V18.1205C147.403 18.5382 147.556 18.8996 147.861 19.2048C148.166 19.494 148.528 19.6386 148.945 19.6386H149.259V19.8795H143.982V19.6386H144.295C144.712 19.6386 145.066 19.494 145.355 19.2048C145.66 18.8996 145.821 18.5382 145.837 18.1205V4.62651C145.837 4.24096 145.676 3.91968 145.355 3.66265C145.05 3.38956 144.696 3.25301 144.295 3.25301H144.006L143.982 3.01205H151.042C151.54 3.01205 152.078 2.96385 152.656 2.86747C153.251 2.77108 153.668 2.6747 153.909 2.57831V5.3012Z" fill="black"/>
<path d="M158.644 5.10843C160.363 3.48594 162.588 2.6747 165.319 2.6747C168.066 2.6747 170.298 3.48594 172.017 5.10843C173.736 6.71486 174.596 8.82731 174.596 11.4458C174.596 14.0643 173.736 16.1847 172.017 17.8072C170.298 19.4137 168.066 20.2169 165.319 20.2169C162.588 20.2169 160.363 19.4137 158.644 17.8072C156.925 16.1847 156.066 14.0643 156.066 11.4458C156.066 8.82731 156.925 6.71486 158.644 5.10843ZM159.945 17.2771C161.31 18.755 163.102 19.494 165.319 19.494C167.535 19.494 169.319 18.755 170.668 17.2771C172.033 15.7992 172.716 13.8554 172.716 11.4458C172.716 9.03614 172.033 7.09237 170.668 5.61446C169.319 4.13655 167.535 3.39759 165.319 3.39759C163.102 3.39759 161.31 4.13655 159.945 5.61446C158.596 7.09237 157.921 9.03614 157.921 11.4458C157.921 13.8554 158.596 15.7992 159.945 17.2771Z" fill="black"/>
<path d="M181.466 3.75904H179.924V18.1205C179.924 18.5382 180.069 18.8996 180.358 19.2048C180.663 19.494 181.032 19.6386 181.466 19.6386H181.755L181.779 19.8795H176.502V19.6386H176.816C177.233 19.6386 177.587 19.494 177.876 19.2048C178.181 18.9157 178.342 18.5622 178.358 18.1446V4.77108C178.342 4.35341 178.181 4 177.876 3.71084C177.587 3.40562 177.233 3.25301 176.816 3.25301H176.502V3.01205H183.008C184.47 3.01205 185.619 3.42169 186.454 4.24096C187.289 5.04418 187.707 6.09638 187.707 7.39759C187.707 8.68273 187.305 9.7992 186.502 10.747C185.715 11.6787 184.751 12.1446 183.611 12.1446C183.852 12.257 184.133 12.4819 184.454 12.8193C184.791 13.1406 185.089 13.4779 185.346 13.8313C186.727 15.8072 187.627 17.0281 188.044 17.494C188.462 17.9438 188.759 18.257 188.936 18.4337C189.113 18.5944 189.305 18.755 189.514 18.9157C189.723 19.0763 189.932 19.2048 190.141 19.3012C190.607 19.5261 191.105 19.6386 191.635 19.6386V19.8795H190.309C189.619 19.8795 188.976 19.759 188.382 19.5181C187.787 19.261 187.338 19.004 187.032 18.747C186.743 18.4739 186.486 18.2169 186.261 17.9759C186.052 17.7189 185.458 16.8835 184.478 15.4699C183.498 14.0562 182.928 13.253 182.767 13.0602C182.607 12.8514 182.438 12.6506 182.261 12.4578C181.747 11.9116 181.233 11.6386 180.719 11.6386V11.3976C180.848 11.4137 181.016 11.4217 181.225 11.4217C181.434 11.4217 181.691 11.4137 181.996 11.3976C183.988 11.3494 185.241 10.5141 185.755 8.89156C185.852 8.57028 185.9 8.27309 185.9 8C185.9 7.71084 185.9 7.5261 185.9 7.44578C185.868 6.36948 185.587 5.50201 185.056 4.84337C184.526 4.18474 183.811 3.83132 182.912 3.78313C182.526 3.76707 182.044 3.75904 181.466 3.75904Z" fill="black"/>
</svg>
