<svg width="58" height="50" viewBox="0 0 58 50" fill="none" xmlns="http://www.w3.org/2000/svg">
<path d="M57.5 29.7532V46.3802C57.5 47.761 56.3808 48.8802 55 48.8802H45.8158L45.426 49.2692C44.4496 50.2436 42.8665 50.2436 41.8901 49.2692L41.5004 48.8802H40.8335H2.5C1.11925 48.8802 0 47.761 0 46.3802V32.2532C0 30.8726 1.11913 29.7533 2.49975 29.7532H57.5Z" fill="white"/>
<path d="M57.5 29.7532V46.3802C57.5 47.761 56.3808 48.8802 55 48.8802H45.8158L45.426 49.2692C44.4496 50.2436 42.8665 50.2436 41.8901 49.2692L41.5004 48.8802L38.3625 48.8802L29.8149 40.3326V35.0429L29.8334 35.0619V29.7531L57.5 29.7532Z" fill="#979B99"/>
<path d="M55.4429 39.2731L45.426 49.2692C44.4496 50.2436 42.8665 50.2436 41.8901 49.2692L10.7908 18.2343C9.81441 17.26 9.81441 15.6801 10.7908 14.7057L20.8078 4.70945C21.7842 3.73508 23.3673 3.73508 24.3437 4.70945L55.4429 35.7443C56.4193 36.7188 56.4193 38.2986 55.4429 39.2731Z" fill="white"/>
<path d="M55.4429 39.2731L45.426 49.2692C44.4496 50.2436 42.8665 50.2436 41.8901 49.2692L36.25 43.641V23.9838H43.658L55.4429 35.7443C56.4193 36.7188 56.4193 38.2986 55.4429 39.2731Z" fill="#AAAFAD"/>
<path d="M38.3334 46.3803V30.0001C38.3334 28.6193 39.4526 27.5001 40.8334 27.5001H55C56.3808 27.5001 57.5 28.6193 57.5 30.0001V46.3802C57.5 47.761 56.3808 48.8802 55 48.8802H40.8335C39.4528 48.8802 38.3334 47.761 38.3334 46.3803Z" fill="white"/>
<path d="M45.787 43.5671C45.787 44.7409 44.8355 45.6924 43.6618 45.6924H43.653C42.4793 45.6924 41.5278 44.7409 41.5278 43.5671C41.5278 42.3934 42.4793 41.4419 43.653 41.4419H43.6618C44.8355 41.4419 45.787 42.3934 45.787 43.5671Z" fill="#AAAFAD"/>
<path d="M44.7223 43.5671C44.7223 44.154 44.2455 44.6297 43.6574 44.6297C43.0693 44.6297 42.5925 44.154 42.5925 43.5671C42.5925 42.9802 43.0693 42.5045 43.6574 42.5045C44.2455 42.5045 44.7223 42.9802 44.7223 43.5671Z" fill="#66646D"/>
<path d="M41.5278 33.4724C41.5278 33.179 41.7656 32.9411 42.059 32.9411H53.7742C54.0675 32.9411 54.3054 33.179 54.3054 33.4724C54.3054 33.7658 54.0675 34.0036 53.7742 34.0036H42.059C41.7656 34.0036 41.5278 33.7658 41.5278 33.4724Z" fill="#AAAFAD"/>
<path d="M41.5277 35.5975C41.5277 35.3042 41.7656 35.0663 42.059 35.0663H53.7741C54.0675 35.0663 54.3054 35.3042 54.3054 35.5975C54.3054 35.8909 54.0675 36.1288 53.7741 36.1288H42.059C41.7656 36.1289 41.5277 35.891 41.5277 35.5975Z" fill="#AAAFAD"/>
<path d="M0 46.3802V32.2532C0 30.8726 1.11913 29.7533 2.49975 29.7532L29.8149 29.7532V48.8802L2.5 48.8802C1.11925 48.8802 0 47.761 0 46.3802Z" fill="#475E70"/>
<path d="M29.8149 29.7532L29.8149 40.3326L22.3149 32.8787V29.753L29.8149 29.7532Z" fill="#344A59"/>
<path d="M0 46.3802V32.2532C0 30.8726 1.11913 29.7533 2.49975 29.7532L22.3611 29.7532V48.8802L2.5 48.8802C1.11925 48.8802 0 47.761 0 46.3802Z" fill="#65849B"/>
<path d="M19.1666 35.5965V33.4734C19.1666 33.1794 19.405 32.9411 19.699 32.9411C19.993 32.9411 20.2314 33.1794 20.2314 33.4734V35.5965C20.2314 35.8904 19.993 36.1288 19.699 36.1288C19.405 36.1288 19.1666 35.8904 19.1666 35.5965Z" fill="#344A59"/>
<path d="M0 46.3802V32.2532C0 30.8726 1.11913 29.7533 2.49975 29.7532L14.9074 29.7532V48.8802L2.5 48.8802C1.11925 48.8802 0 47.761 0 46.3802Z" fill="#7FA3BA"/>
<path d="M11.713 35.5965V33.4734C11.713 33.1794 11.9514 32.9411 12.2454 32.9411C12.5394 32.9411 12.7778 33.1794 12.7778 33.4734V35.5965C12.7778 35.8904 12.5394 36.1288 12.2454 36.1288C11.9514 36.1288 11.713 35.8904 11.713 35.5965Z" fill="#65849B"/>
<path d="M2.5 48.8802C1.11925 48.8802 0 47.761 0 46.3802V32.2532C0 30.8726 1.11913 29.7533 2.49975 29.7532L7.45375 29.7532V48.8802L2.5 48.8802Z" fill="#95BDBF"/>
<path d="M4.25923 35.5965V33.4734C4.25923 33.1794 4.49761 32.9411 4.79161 32.9411C5.08561 32.9411 5.32398 33.1794 5.32398 33.4734V35.5965C5.32398 35.8904 5.08561 36.1288 4.79161 36.1288C4.49761 36.1288 4.25923 35.8904 4.25923 35.5965Z" fill="#7FA3BA"/>
<path d="M43.658 23.9838L30.1052 37.5087L10.7908 18.2343C9.81441 17.26 9.81441 15.6801 10.7908 14.7057L20.8078 4.70945C21.7842 3.73508 23.3673 3.73508 24.3437 4.70945L43.658 23.9838Z" fill="#707F39"/>
<path d="M38.3875 18.7242L24.8346 32.2491L19.564 26.9895L10.7908 18.2343C9.81441 17.26 9.81441 15.6801 10.7908 14.7057L20.8078 4.70945C21.7842 3.73508 23.3673 3.73508 24.3437 4.70945L33.1168 13.4646L38.3875 18.7242Z" fill="#84994B"/>
<path d="M19.564 26.9895L10.7908 18.2343C9.81441 17.26 9.81441 15.6801 10.7908 14.7057L20.8078 4.70945C21.7842 3.73508 23.3673 3.73508 24.3437 4.70945L33.1168 13.4646L19.564 26.9895Z" fill="#AAC06A"/>
<path d="M10.7908 18.2343C9.81441 17.26 9.81441 15.6801 10.7908 14.7057L20.8078 4.70945C21.7842 3.73508 23.3673 3.73508 24.3437 4.70945L27.8463 8.20477L14.2934 21.7297L10.7908 18.2343Z" fill="#C8DD7F"/>
<path d="M31.9877 20.6024L33.4936 19.0997C33.7016 18.8922 34.0382 18.8922 34.2462 19.0997C34.4541 19.3072 34.4541 19.6439 34.2462 19.8514L32.7403 21.3542C32.5323 21.5617 32.1957 21.5617 31.9877 21.3542C31.7798 21.1467 31.7798 20.8099 31.9877 20.6024Z" fill="#707F39"/>
<path d="M26.7171 15.3428L28.2229 13.8401C28.4309 13.6326 28.7676 13.6326 28.9756 13.8401C29.1834 14.0476 29.1834 14.3843 28.9756 14.5918L27.4697 16.0946C27.2617 16.3021 26.9251 16.3021 26.7171 16.0946C26.5092 15.8871 26.5092 15.5502 26.7171 15.3428Z" fill="#84994B"/>
<path d="M21.4465 10.0832L22.9524 8.58044C23.1604 8.37294 23.497 8.37294 23.705 8.58044C23.9129 8.78794 23.9129 9.12469 23.705 9.33219L22.1992 10.8349C21.9912 11.0424 21.6545 11.0424 21.4465 10.8349C21.2385 10.6274 21.2385 10.2906 21.4465 10.0832Z" fill="#AAC06A"/>
<path d="M38.3875 18.7242L43.658 23.9838L36.2501 31.3766V20.8572L38.3875 18.7242Z" fill="#515B28"/>
<path d="M40.8334 3.75H55C56.3807 3.75 57.5 4.86925 57.5 6.25L57.5 29.7532L38.3334 29.7531V6.25C38.3334 4.86925 39.4526 3.75 40.8334 3.75Z" fill="#AA3131"/>
<path d="M40.8334 2.5H55C56.3807 2.5 57.5 3.61925 57.5 5V22.3149H38.3334V5C38.3334 3.61925 39.4526 2.5 40.8334 2.5Z" fill="#C93F3F"/>
<path d="M40.8334 2.5H55C56.3807 2.5 57.5 3.61925 57.5 5V14.8766H38.3334V5C38.3334 3.61925 39.4526 2.5 40.8334 2.5Z" fill="#E25C56"/>
<path d="M38.3333 2.5C38.3333 1.11925 39.4526 0 40.8333 0H55C56.3807 0 57.5 1.11925 57.5 2.5V7.43825H38.3333V2.5Z" fill="#FF9292"/>
<path d="M51.6424 26.5654H53.7742C54.0676 26.5654 54.3055 26.8032 54.3055 27.0966C54.3055 27.39 54.0676 27.6279 53.7742 27.6279H51.6424C51.349 27.6279 51.1111 27.39 51.1111 27.0966C51.1111 26.8032 51.349 26.5654 51.6424 26.5654Z" fill="#6C3131"/>
<path d="M51.6424 19.127H53.7742C54.0676 19.127 54.3055 19.3649 54.3055 19.6583C54.3055 19.9516 54.0676 20.1895 53.7742 20.1895H51.6424C51.349 20.1895 51.1111 19.9516 51.1111 19.6583C51.1111 19.3649 51.349 19.127 51.6424 19.127Z" fill="#AA3131"/>
<path d="M51.6424 11.6887H53.7742C54.0676 11.6887 54.3055 11.9266 54.3055 12.22C54.3055 12.5134 54.0676 12.7512 53.7742 12.7512H51.6424C51.349 12.7512 51.1111 12.5134 51.1111 12.22C51.1111 11.9266 51.349 11.6887 51.6424 11.6887Z" fill="#C93F3F"/>
<path d="M51.6424 4.25049H53.7742C54.0676 4.25049 54.3055 4.48837 54.3055 4.78174C54.3055 5.07512 54.0676 5.31299 53.7742 5.31299H51.6424C51.349 5.31299 51.1111 5.07512 51.1111 4.78174C51.1111 4.48837 51.349 4.25049 51.6424 4.25049Z" fill="#E25C56"/>
</svg>
